<?xml version="1.0" encoding="UTF-8" standalone="no"?>
<svg
   xmlns:svg="http://www.w3.org/2000/svg"
   xmlns="http://www.w3.org/2000/svg"
   viewBox="0 0 340.54144 48.5"
   version="1.1">
   <path
      d="M 11.95,43.5 Q 9.1,43.5 7.05,41.45 5,39.4 5,36.55 V 14.45 Q 5,11.6 7.05,9.55 9.1,7.5 11.95,7.5 H 40.9 v 6.65 H 13.35 q -1.4,0 -1.6,0.2 -0.15,0.15 -0.15,1.55 v 19.2 q 0,1.4 0.15,1.6 0.2,0.15 1.6,0.15 H 40.9 v 6.65 z"
      style="fill:#fafafa"
   />
   <path
      d="m 52.74993,43.5 q -2.85,0 -4.9,-2 -2,-2.05 -2,-4.9 V 21.4 q 0,-2.85 2,-4.85 2.05,-2.05 4.9,-2.05 h 15.65 q 2.85,0 4.85,2.05 2.05,2 2.05,4.85 v 15.2 q 0,2.85 -2.05,4.9 -2,2 -4.85,2 z m 1.4,-6.55 h 12.85 q 1.4,0 1.55,-0.15 0.2,-0.2 0.2,-1.6 V 22.8 q 0,-1.4 -0.2,-1.55 -0.15,-0.2 -1.55,-0.2 h -12.85 q -1.4,0 -1.6,0.2 -0.15,0.15 -0.15,1.55 v 12.4 q 0,1.4 0.15,1.6 0.2,0.15 1.6,0.15 z"
      style="fill:#c03be1"
   />
   <path
      d="m 85.949905,43.5 q -2.85,0 -4.9,-2 -2,-2.05 -2,-4.9 V 21.4 q 0,-2.85 2,-4.85 2.05,-2.05 4.9,-2.05 H 101.99991 V 5 h 6.55 v 38.5 z m 1.45,-6.55 h 12.850005 q 1.4,0 1.55,-0.15 0.2,-0.2 0.2,-1.6 V 22.8 q 0,-1.4 -0.2,-1.55 -0.15,-0.2 -1.55,-0.2 H 87.399905 q -1.4,0 -1.6,0.2 -0.15,0.15 -0.15,1.55 v 12.4 q 0,1.4 0.15,1.6 0.2,0.15 1.6,0.15 z"
      style="fill:#fafafa"
   />
   <path
      d="m 119.59649,43.5 q -2.85,0 -4.9,-2 -2,-2.05 -2,-4.9 V 21.4 q 0,-2.85 2,-4.85 2.05,-2.05 4.9,-2.05 h 15.65 q 2.85,0 4.85,2.05 2.05,2 2.05,4.85 v 10.9 h -22.9 v 2.9 q 0,1.4 0.15,1.6 0.2,0.15 1.6,0.15 h 21.15 v 6.55 z m -0.35,-17.1 h 16.35 v -3.6 q 0,-1.4 -0.2,-1.55 -0.15,-0.2 -1.55,-0.2 h -12.85 q -1.4,0 -1.6,0.2 -0.15,0.15 -0.15,1.55 z"
      style="fill:#fafafa"
   />
   <path
      d="m 162.99645,43.5 v -36 h 27.6 q 2.85,0 4.9,2.05 2.05,2.05 2.05,4.9 v 7.05 q 0,0.65 -0.1,1.25 -0.1,0.6 -0.35,1.15 0.85,1.15 1.35,2.4 0.55,1.25 0.55,2.5 v 7.75 q 0,2.85 -2.05,4.9 -2.05,2.05 -4.95,2.05 z m 8.35,-6.65 h 19.25 q 1.35,0 1.55,-0.15 0.2,-0.2 0.2,-1.6 v -4.85 q 0,-1.4 -0.2,-1.55 -0.2,-0.2 -1.55,-0.2 h -19.25 q -1.4,0 -1.6,0.2 -0.15,0.15 -0.15,1.55 v 4.85 q 0,1.4 0.15,1.6 0.2,0.15 1.6,0.15 z m 0,-15 h 17.8 q 1.4,0 1.55,-0.15 0.15,-0.2 0.15,-1.6 v -4.2 q 0,-1.4 -0.15,-1.55 -0.15,-0.2 -1.55,-0.2 h -17.8 q -1.4,0 -1.6,0.2 -0.15,0.15 -0.15,1.55 v 4.2 q 0,1.4 0.15,1.6 0.2,0.15 1.6,0.15 z"
      style="fill:#fafafa"
   />
   <path
      d="m 211.0964,43.5 q -2.85,0 -4.9,-2 -2,-2.05 -2,-4.9 V 21.4 q 0,-2.85 2,-4.85 2.05,-2.05 4.9,-2.05 h 15.65 q 2.85,0 4.85,2.05 2.05,2 2.05,4.85 v 10.9 h -22.9 v 2.9 q 0,1.4 0.15,1.6 0.2,0.15 1.6,0.15 h 21.15 v 6.55 z m -0.35,-17.1 h 16.35 v -3.6 q 0,-1.4 -0.2,-1.55 -0.15,-0.2 -1.55,-0.2 h -12.85 q -1.4,0 -1.6,0.2 -0.15,0.15 -0.15,1.55 z"
      style="fill:#fafafa"
   />
   <path
      d="m 238.94636,43.5 v -29 h 22.55 q 2.85,0 4.85,2.05 2.05,2 2.05,4.85 v 22.1 h -6.55 V 22.8 q 0,-1.4 -0.2,-1.55 -0.15,-0.2 -1.55,-0.2 h -12.85 q -1.4,0 -1.6,0.2 -0.15,0.15 -0.15,1.55 v 20.7 z"
      style="fill:#fafafa"
   />
   <path
      d="m 279.32398,43.5 q -2.85,0 -4.9,-2 -2,-2.05 -2,-4.9 V 21.4 q 0,-2.85 2,-4.85 2.05,-2.05 4.9,-2.05 h 22.5 v 6.55 h -21.1 q -1.4,0 -1.6,0.2 -0.15,0.15 -0.15,1.55 v 12.4 q 0,1.4 0.15,1.6 0.2,0.15 1.6,0.15 h 21.15 v 6.55 z"
      style="fill:#fafafa"
   />
   <path
      d="M 306.09144,43.5 V 5 h 6.55 v 9.5 h 16 q 2.8,0 4.85,2.05 2.05,2 2.05,4.85 v 22.1 h -6.55 V 22.8 q 0,-1.4 -0.2,-1.55 -0.15,-0.2 -1.55,-0.2 h -12.85 q -1.4,0 -1.6,0.2 -0.15,0.15 -0.15,1.55 v 20.7 z"
      style="fill:#fafafa"
   />
</svg>

